<svg xmlns="http://www.w3.org/2000/svg" version="1.1" xmlns:xlink="http://www.w3.org/1999/xlink" xmlns:svgjs="http://svgjs.dev/svgjs" width="1000" height="1000" viewBox="0 0 1000 1000"><rect width="1000" height="1000" fill="#000000"></rect><g transform="matrix(0.7,0,0,0.7,149.57597243380508,282.1265587044535)"><svg viewBox="0 0 396 247" data-background-color="#080c14" preserveAspectRatio="xMidYMid meet" height="623" width="1000" xmlns="http://www.w3.org/2000/svg" xmlns:xlink="http://www.w3.org/1999/xlink"><g id="tight-bounds" transform="matrix(1,0,0,1,0.2398784517331478,-0.09999999999999432)"><svg viewBox="0 0 395.52 247.2" height="247.2" width="395.52"><g><svg></svg></g><g><svg viewBox="0 0 395.52 247.2" height="247.2" width="395.52"><g><path d="M55.039 247.2l40.389-69.956 3.233 0-38.684 67.003h275.566l-38.684-67.003h3.233l40.389 69.956zM197.76 0l40.389 69.956h-3.233l-37.156-64.356-37.156 64.356-3.233 0z" fill="#ffffff" fill-rule="nonzero" stroke="none" stroke-width="1" stroke-linecap="butt" stroke-linejoin="miter" stroke-miterlimit="10" stroke-dasharray="" stroke-dashoffset="0" font-family="none" font-weight="none" font-size="none" text-anchor="none" style="mix-blend-mode: normal" data-fill-palette-color="tertiary"></path></g><g transform="matrix(1,0,0,1,0,85.28317187060279)"><svg viewBox="0 0 395.52 76.6336562587944" height="76.6336562587944" width="395.52"><g><svg viewBox="0 0 534.6190480179139 103.58467929613853" height="76.6336562587944" width="395.52"><g><rect width="5.780722866576959" height="100.4366644405395" x="104.83842872490288" y="1.5740074277995149" fill="#ffffff" opacity="1" stroke-width="0" stroke="transparent" fill-opacity="1" class="rect-r$-0" data-fill-palette-color="primary" rx="1%" id="r$-0" data-palette-color="#ffffff"></rect></g><g><rect width="5.780722866576959" height="100.4366644405395" x="118.1855427780989" y="1.5740074277995149" fill="#ffffff" opacity="1" stroke-width="0" stroke="transparent" fill-opacity="1" class="rect-r$-1" data-fill-palette-color="primary" rx="1%" id="r$-1" data-palette-color="#ffffff"></rect></g><g transform="matrix(1,0,0,1,139.099048017914,1.823849876656574)"><svg viewBox="0 0 395.52 99.93697954282538" height="99.93697954282538" width="395.52"><g id="textblocktransform"><svg viewBox="0 0 395.52 99.93697954282538" height="99.93697954282538" width="395.52" id="textblock"><g><svg viewBox="0 0 395.52 64.10131641182548" height="64.10131641182548" width="395.52"><g transform="matrix(1,0,0,1,0,0)"><svg width="395.52" viewBox="3.61 -36.45 292.2977571647221 47.120000000000005" height="64.10131641182548" data-palette-color="#ffffff"><g transform="matrix(1,0,0,1,0,0)"><g><svg width="16.254257164722" viewBox="3.16 -36.36 100.01 36.36" height="5.909589681049291" data-palette-color="#ffffff" id="scriptelement" x="276.28712858236105" y="-27.911294840524647"><path d="M16.05 0L16.05 0 3.16 0 3.16-36.36 16.16-36.36Q21.64-36.36 25.6-34.19 29.56-32.01 31.7-27.95 33.84-23.88 33.84-18.22L33.84-18.22Q33.84-12.54 31.7-8.45 29.56-4.37 25.58-2.18 21.59 0 16.05 0ZM10.85-29.78L10.85-6.59 15.73-6.59Q19.14-6.59 21.48-7.8 23.81-9.02 24.99-11.59 26.17-14.15 26.17-18.22L26.17-18.22Q26.17-22.25 24.99-24.8 23.81-27.36 21.48-28.57 19.16-29.78 15.75-29.78L15.75-29.78 10.85-29.78ZM64.1 0L39.52 0 39.52-36.36 64.02-36.36 64.02-30.02 47.21-30.02 47.21-21.36 62.76-21.36 62.76-15.02 47.21-15.02 47.21-6.34 64.1-6.34 64.1 0ZM68.18-36.36L76.72-36.36 85.51-8.74 85.84-8.74 94.65-36.36 103.17-36.36 90.64 0 80.73 0 68.18-36.36Z" opacity="1" transform="matrix(1,0,0,1,0,0)" fill="#ffffff" class="undefined-123" data-fill-palette-color="primary" id="lv-123"></path></svg></g></g><path d="M272.921-24.957C272.921-31.304 278.067-36.45 284.414-36.45 290.762-36.45 295.908-31.304 295.908-24.957 295.908-18.609 290.762-13.463 284.414-13.463 278.067-13.463 272.921-18.609 272.921-24.957ZM284.414-13.863C290.541-13.863 295.508-18.83 295.508-24.957 295.508-31.083 290.541-36.05 284.414-36.05 278.287-36.05 273.321-31.083 273.321-24.957 273.321-18.83 278.287-13.863 284.414-13.863Z" fill="#ffffff" id="scriptcircle" data-fill-palette-color="primary"></path><g class="wordmark-text-0" data-fill-palette-color="primary" id="text-0"><path d="M9.79-35.55L9.79-4.93 25.93-4.93 25.93 0 3.61 0 3.61-35.55 9.79-35.55ZM41.72 0.49L41.72 0.49Q36.08 0.49 32.58-3.06 29.07-6.62 29.07-12.52L29.07-12.52 29.07-13.26Q29.07-17.21 30.6-20.32 32.13-23.44 34.89-25.17 37.64-26.9 41.04-26.9L41.04-26.9Q46.43-26.9 49.37-23.46 52.32-20.02 52.32-13.72L52.32-13.72 52.32-11.33 35.06-11.33Q35.32-8.06 37.24-6.15 39.16-4.25 42.06-4.25L42.06-4.25Q46.14-4.25 48.7-7.54L48.7-7.54 51.9-4.49Q50.31-2.12 47.67-0.82 45.02 0.49 41.72 0.49ZM41.01-22.14L41.01-22.14Q38.57-22.14 37.07-20.43 35.57-18.73 35.15-15.67L35.15-15.67 46.46-15.67 46.46-16.11Q46.26-19.09 44.87-20.62 43.48-22.14 41.01-22.14ZM78.75 0L72.7 0Q72.31-0.76 72.02-2.47L72.02-2.47Q69.18 0.49 65.08 0.49L65.08 0.49Q61.1 0.49 58.59-1.78 56.07-4.05 56.07-7.4L56.07-7.4Q56.07-11.62 59.21-13.88 62.35-16.14 68.18-16.14L68.18-16.14 71.82-16.14 71.82-17.87Q71.82-19.92 70.67-21.15 69.53-22.39 67.18-22.39L67.18-22.39Q65.16-22.39 63.86-21.37 62.57-20.36 62.57-18.8L62.57-18.8 56.64-18.8Q56.64-20.97 58.08-22.86 59.52-24.76 61.99-25.83 64.47-26.9 67.52-26.9L67.52-26.9Q72.16-26.9 74.92-24.57 77.68-22.24 77.75-18.02L77.75-18.02 77.75-6.1Q77.75-2.54 78.75-0.42L78.75-0.42 78.75 0ZM66.18-4.27L66.18-4.27Q67.94-4.27 69.49-5.13 71.04-5.98 71.82-7.42L71.82-7.42 71.82-12.4 68.62-12.4Q65.33-12.4 63.67-11.25 62.01-10.11 62.01-8.01L62.01-8.01Q62.01-6.3 63.14-5.29 64.28-4.27 66.18-4.27ZM97.82-26.56L97.8-21Q96.62-21.19 95.38-21.19L95.38-21.19Q91.3-21.19 89.89-18.07L89.89-18.07 89.89 0 83.95 0 83.95-26.42 89.62-26.42 89.76-23.46Q91.91-26.9 95.72-26.9L95.72-26.9Q96.99-26.9 97.82-26.56L97.82-26.56ZM101.45-26.42L107.05-26.42 107.22-23.36Q110.15-26.9 114.91-26.9L114.91-26.9Q123.16-26.9 123.31-17.46L123.31-17.46 123.31 0 117.37 0 117.37-17.11Q117.37-19.63 116.29-20.84 115.2-22.05 112.73-22.05L112.73-22.05Q109.15-22.05 107.39-18.8L107.39-18.8 107.39 0 101.45 0 101.45-26.42ZM155.6-35.55L155.6-30.57 144.52-30.57 144.52 0 138.39 0 138.39-30.57 127.4-30.57 127.4-35.55 155.6-35.55ZM173.54-26.56L173.52-21Q172.35-21.19 171.1-21.19L171.1-21.19Q167.03-21.19 165.61-18.07L165.61-18.07 165.61 0 159.68 0 159.68-26.42 165.34-26.42 165.49-23.46Q167.64-26.9 171.44-26.9L171.44-26.9Q172.71-26.9 173.54-26.56L173.54-26.56ZM183.58-26.42L183.58 0 177.64 0 177.64-26.42 183.58-26.42ZM177.28-33.28L177.28-33.28Q177.28-34.64 178.14-35.55 179.01-36.45 180.62-36.45 182.23-36.45 183.11-35.55 183.99-34.64 183.99-33.28L183.99-33.28Q183.99-31.93 183.11-31.04 182.23-30.15 180.62-30.15 179.01-30.15 178.14-31.04 177.28-31.93 177.28-33.28ZM189.95-26.42L195.54-26.42 195.71-23.36Q198.64-26.9 203.4-26.9L203.4-26.9Q211.65-26.9 211.8-17.46L211.8-17.46 211.8 0 205.86 0 205.86-17.11Q205.86-19.63 204.78-20.84 203.69-22.05 201.23-22.05L201.23-22.05Q197.64-22.05 195.88-18.8L195.88-18.8 195.88 0 189.95 0 189.95-26.42ZM224.15-26.42L224.15 0 218.21 0 218.21-26.42 224.15-26.42ZM217.85-33.28L217.85-33.28Q217.85-34.64 218.72-35.55 219.58-36.45 221.19-36.45 222.8-36.45 223.68-35.55 224.56-34.64 224.56-33.28L224.56-33.28Q224.56-31.93 223.68-31.04 222.8-30.15 221.19-30.15 219.58-30.15 218.72-31.04 217.85-31.93 217.85-33.28ZM232.1-32.84L238.04-32.84 238.04-26.42 242.7-26.42 242.7-22.02 238.04-22.02 238.04-7.28Q238.04-5.76 238.63-5.09 239.23-4.42 240.77-4.42L240.77-4.42Q241.8-4.42 242.85-4.66L242.85-4.66 242.85-0.07Q240.82 0.49 238.94 0.49L238.94 0.49Q232.1 0.49 232.1-7.06L232.1-7.06 232.1-22.02 227.76-22.02 227.76-26.42 232.1-26.42 232.1-32.84ZM250.88-26.42L256.47-8.5 261.84-26.42 268.16-26.42 257.66 4Q255.25 10.67 249.46 10.67L249.46 10.67Q248.17 10.67 246.6 10.23L246.6 10.23 246.6 5.64 247.73 5.71Q249.97 5.71 251.11 4.9 252.24 4.08 252.9 2.15L252.9 2.15 253.76-0.12 244.48-26.42 250.88-26.42Z" fill="#ffffff" data-fill-palette-color="primary"></path></g></svg></g></svg></g><g transform="matrix(1,0,0,1,40.73126291974553,79.2340987850636)"><svg viewBox="0 0 229.40159999999997 20.702880757761793" height="20.702880757761793" width="229.40159999999997"><g transform="matrix(1,0,0,1,0,0)"><svg width="229.40159999999997" viewBox="0.45 -40.35 570.04 51.45" height="20.702880757761793" data-palette-color="#ffffff"><path d="M5.3-34.65L23.25-34.65 21.55-29.05 12.25-29.05 11-20.35 19.3-20.35 18.5-14.85 10.25-14.85 8.95-5.7 19.15-5.7 18.3 0 0.45 0 5.3-34.65ZM49.7-27.4Q52-27.4 53.32-25.78 54.65-24.15 54.65-21.35L54.65-21.35Q54.65-20.5 54.5-19.5L54.5-19.5 51.7 0 44.3 0 46.85-18.3Q46.95-19.1 46.95-19.4L46.95-19.4Q46.95-20.9 46.1-20.9L46.1-20.9Q45.35-20.9 44.52-19.6 43.7-18.3 42.55-15.55L42.55-15.55 40.35 0 32.95 0 35.45-18.3Q35.55-19.2 35.55-19.45L35.55-19.45Q35.55-20.9 34.7-20.9L34.7-20.9Q33.95-20.9 33.12-19.55 32.3-18.2 31.15-15.4L31.15-15.4 29 0 21.6 0 25.3-26.55 31.75-26.55 31.6-22.5Q33.05-24.85 34.65-26.13 36.25-27.4 38.3-27.4L38.3-27.4Q40.25-27.4 41.52-26.18 42.8-24.95 43.15-22.75L43.15-22.75Q44.55-25 46.15-26.2 47.75-27.4 49.7-27.4L49.7-27.4ZM54.35 11.1L59.6-26.55 66.15-26.55 66.09-23.9Q68.84-27.4 72.8-27.4L72.8-27.4Q75.84-27.4 77.55-25.08 79.25-22.75 79.25-18.45L79.25-18.45Q79.25-13.15 77.92-8.78 76.59-4.4 73.8-1.78 71 0.85 66.8 0.85L66.8 0.85Q64.84 0.85 63.2 0.25L63.2 0.25 61.8 10.3 54.35 11.1ZM66.2-4.65Q68.09-4.65 69.34-6.85 70.59-9.05 71.17-12.2 71.75-15.35 71.75-18.2L71.75-18.2Q71.75-20.25 71.22-21.05 70.7-21.85 69.7-21.85L69.7-21.85Q68.8-21.85 67.82-21.13 66.84-20.4 65.95-19.15L65.95-19.15 64-5.1Q65.05-4.65 66.2-4.65L66.2-4.65ZM90.44 0.85Q86.04 0.85 83.62-1.83 81.19-4.5 81.19-9.55L81.19-9.55Q81.19-14.15 82.64-18.23 84.09-22.3 87.04-24.85 89.99-27.4 94.29-27.4L94.29-27.4Q98.69-27.4 101.12-24.73 103.54-22.05 103.54-16.95L103.54-16.95Q103.54-12.35 102.09-8.3 100.64-4.25 97.69-1.7 94.74 0.85 90.44 0.85L90.44 0.85ZM90.94-4.7Q92.74-4.7 93.89-6.9 95.04-9.1 95.57-12.2 96.09-15.3 96.09-18.05L96.09-18.05Q96.09-20.05 95.52-20.93 94.94-21.8 93.79-21.8L93.79-21.8Q91.99-21.8 90.84-19.63 89.69-17.45 89.19-14.38 88.69-11.3 88.69-8.5L88.69-8.5Q88.69-6.5 89.24-5.6 89.79-4.7 90.94-4.7L90.94-4.7ZM130.44-26.55L137.54-26.55 129.49 0 121.09 0 121.14-19.85 116.04 0 107.44 0 106.74-26.55 114.14-26.55 112.99-5.65 118.79-26.55 125.84-26.55 125.59-5.65 130.44-26.55ZM150.54-27.4Q154.34-27.4 156.54-25.45 158.74-23.5 158.74-20.45L158.74-20.45Q158.74-15.3 154.74-12.88 150.74-10.45 144.29-9.65L144.29-9.65 144.29-8.95Q144.29-4.75 147.54-4.75L147.54-4.75Q148.89-4.75 150.14-5.3 151.39-5.85 153.09-7.05L153.09-7.05 155.69-2.7Q151.49 0.85 146.29 0.85L146.29 0.85Q141.94 0.85 139.44-1.73 136.94-4.3 136.94-9.25L136.94-9.25Q136.94-14.15 138.44-18.28 139.94-22.4 143.01-24.9 146.09-27.4 150.54-27.4L150.54-27.4ZM144.74-14.3Q148.24-14.65 149.89-16.25 151.54-17.85 151.54-20.2L151.54-20.2Q151.54-22.3 149.69-22.3L149.69-22.3Q147.79-22.3 146.56-20.03 145.34-17.75 144.74-14.3L144.74-14.3ZM175.44-27.3Q176.49-27.3 177.59-26.9L177.59-26.9 175.29-19.65Q174.19-19.95 173.49-19.95L173.49-19.95Q171.69-19.95 170.46-18 169.24-16.05 168.24-12.45L168.24-12.45 166.54 0 159.14 0 162.84-26.55 169.19-26.55 169.04-22.1Q170.24-24.6 171.79-25.95 173.34-27.3 175.44-27.3L175.44-27.3ZM179.43-26.55L186.83-26.55 183.13 0 175.73 0 179.43-26.55ZM183.93-31.7Q182.13-31.7 181.11-32.73 180.08-33.75 180.08-35.45L180.08-35.45Q180.08-37.55 181.48-38.95 182.88-40.35 184.88-40.35L184.88-40.35Q186.73-40.35 187.73-39.33 188.73-38.3 188.73-36.6L188.73-36.6Q188.73-34.45 187.36-33.08 185.98-31.7 183.93-31.7L183.93-31.7ZM204.58-27.4Q206.93-27.4 208.31-25.78 209.68-24.15 209.68-21.35L209.68-21.35Q209.68-20.5 209.53-19.5L209.53-19.5 206.78 0 199.38 0 201.93-18.3Q201.98-18.6 201.98-19.15L201.98-19.15Q201.98-20.7 200.98-20.7L200.98-20.7Q200.13-20.7 199.18-19.35 198.23-18 196.98-15.3L196.98-15.3 194.83 0 187.43 0 191.13-26.55 197.58-26.55 197.43-22.35Q198.93-24.7 200.68-26.05 202.43-27.4 204.58-27.4L204.58-27.4ZM225.58-27.4Q230.08-27.4 234.43-24.95L234.43-24.95 231.08-1.1Q230.18 5.2 227.23 8.15 224.28 11.1 218.98 11.1L218.98 11.1Q214.28 11.1 210.38 8.35L210.38 8.35 213.08 3.5Q215.98 5.3 218.73 5.3L218.73 5.3Q220.73 5.3 222.03 4.15 223.33 3 223.73-0.05L223.73-0.05 224.18-3.3Q222.98-1.7 221.63-0.83 220.28 0.05 218.38 0.05L218.38 0.05Q215.18 0.05 213.4-2.48 211.63-5 211.63-9.25L211.63-9.25Q211.63-14.05 213.05-18.15 214.48-22.25 217.6-24.83 220.73-27.4 225.58-27.4L225.58-27.4ZM224.93-22Q222.08-22 220.6-18.15 219.13-14.3 219.13-9.1L219.13-9.1Q219.13-7.2 219.6-6.38 220.08-5.55 221.08-5.55L221.08-5.55Q222.68-5.55 224.78-8.75L224.78-8.75 226.58-21.75Q225.73-22 224.93-22L224.93-22ZM261.27-35.5Q266.42-35.5 269.77-31.6L269.77-31.6 265.72-27.6Q263.57-29.65 261.22-29.65L261.22-29.65Q258.37-29.65 256.57-26.93 254.77-24.2 253.95-20.13 253.12-16.05 253.12-11.9L253.12-11.9Q253.12-5.2 257.27-5.2L257.27-5.2Q258.72-5.2 259.95-5.85 261.17-6.5 263.02-7.85L263.02-7.85 265.82-3.45Q261.22 0.85 255.82 0.85L255.82 0.85Q250.92 0.85 248.05-2.53 245.17-5.9 245.17-12.35L245.17-12.35Q245.17-18.45 246.97-23.75 248.77-29.05 252.4-32.27 256.02-35.5 261.27-35.5L261.27-35.5ZM277.82 0.85Q273.42 0.85 271-1.83 268.57-4.5 268.57-9.55L268.57-9.55Q268.57-14.15 270.02-18.23 271.47-22.3 274.42-24.85 277.37-27.4 281.67-27.4L281.67-27.4Q286.07-27.4 288.5-24.73 290.92-22.05 290.92-16.95L290.92-16.95Q290.92-12.35 289.47-8.3 288.02-4.25 285.07-1.7 282.12 0.85 277.82 0.85L277.82 0.85ZM278.32-4.7Q280.12-4.7 281.27-6.9 282.42-9.1 282.95-12.2 283.47-15.3 283.47-18.05L283.47-18.05Q283.47-20.05 282.9-20.93 282.32-21.8 281.17-21.8L281.17-21.8Q279.37-21.8 278.22-19.63 277.07-17.45 276.57-14.38 276.07-11.3 276.07-8.5L276.07-8.5Q276.07-6.5 276.62-5.6 277.17-4.7 278.32-4.7L278.32-4.7ZM310.47-37.85L317.77-37.1 312.57 0 306.02 0 306.17-3.3Q304.82-1.25 303.27-0.2 301.72 0.85 299.62 0.85L299.62 0.85Q296.42 0.85 294.67-1.6 292.92-4.05 292.92-8.6L292.92-8.6Q292.92-13.25 294.19-17.57 295.47-21.9 297.99-24.65 300.52-27.4 304.02-27.4L304.02-27.4Q307.07-27.4 308.67-24.9L308.67-24.9 310.47-37.85ZM305.47-21.9Q303.82-21.9 302.69-19.75 301.57-17.6 301.02-14.48 300.47-11.35 300.47-8.6L300.47-8.6Q300.47-6.45 300.99-5.58 301.52-4.7 302.47-4.7L302.47-4.7Q303.47-4.7 304.42-5.7 305.37-6.7 306.37-8.55L306.37-8.55 307.97-20Q307.47-20.95 306.89-21.43 306.32-21.9 305.47-21.9L305.47-21.9ZM331.17-27.4Q334.97-27.4 337.17-25.45 339.37-23.5 339.37-20.45L339.37-20.45Q339.37-15.3 335.37-12.88 331.37-10.45 324.92-9.65L324.92-9.65 324.92-8.95Q324.92-4.75 328.17-4.75L328.17-4.75Q329.52-4.75 330.77-5.3 332.02-5.85 333.72-7.05L333.72-7.05 336.32-2.7Q332.12 0.85 326.92 0.85L326.92 0.85Q322.57 0.85 320.07-1.73 317.57-4.3 317.57-9.25L317.57-9.25Q317.57-14.15 319.07-18.28 320.57-22.4 323.64-24.9 326.72-27.4 331.17-27.4L331.17-27.4ZM325.37-14.3Q328.87-14.65 330.52-16.25 332.17-17.85 332.17-20.2L332.17-20.2Q332.17-22.3 330.32-22.3L330.32-22.3Q328.42-22.3 327.19-20.03 325.97-17.75 325.37-14.3L325.37-14.3ZM356.06-27.3Q357.11-27.3 358.21-26.9L358.21-26.9 355.91-19.65Q354.81-19.95 354.11-19.95L354.11-19.95Q352.31-19.95 351.09-18 349.86-16.05 348.86-12.45L348.86-12.45 347.16 0 339.76 0 343.46-26.55 349.81-26.55 349.66-22.1Q350.86-24.6 352.41-25.95 353.96-27.3 356.06-27.3L356.06-27.3ZM367.86-27.4Q370.31-27.4 372.46-26.5 374.61-25.6 376.16-24.05L376.16-24.05 372.96-20.05Q370.51-22 368.21-22L368.21-22Q366.91-22 366.11-21.3 365.31-20.6 365.31-19.45L365.31-19.45Q365.31-18.45 366.16-17.7 367.01-16.95 369.36-15.9L369.36-15.9Q372.01-14.7 373.31-13.03 374.61-11.35 374.61-8.65L374.61-8.65Q374.61-5.8 373.19-3.65 371.76-1.5 369.31-0.33 366.86 0.85 363.91 0.85L363.91 0.85Q358.31 0.85 354.61-3.2L354.61-3.2 358.51-7.05Q361.11-4.55 363.76-4.55L363.76-4.55Q365.36-4.55 366.24-5.45 367.11-6.35 367.11-7.65L367.11-7.65Q367.11-8.9 366.29-9.73 365.46-10.55 363.26-11.5L363.26-11.5Q360.51-12.75 359.26-14.33 358.01-15.9 358.01-18.5L358.01-18.5Q358.01-21 359.29-23.03 360.56-25.05 362.79-26.23 365.01-27.4 367.86-27.4L367.86-27.4ZM380.61-7.9Q382.31-7.9 383.28-6.9 384.26-5.9 384.26-4.2L384.26-4.2Q384.26-3 383.78-1.83 383.31-0.65 382.06 1.65L382.06 1.65 378.26 8.8 374.41 8.8 377.46 0Q376.01-1.1 376.01-3L376.01-3Q376.01-5.05 377.31-6.48 378.61-7.9 380.61-7.9L380.61-7.9ZM398.8-34.65L420.95-34.65 419.3-28.6 412.75-28.6 408.7 0 401 0 405.05-28.6 397.95-28.6 398.8-34.65ZM428.15 0.85Q423.75 0.85 421.33-1.83 418.9-4.5 418.9-9.55L418.9-9.55Q418.9-14.15 420.35-18.23 421.8-22.3 424.75-24.85 427.7-27.4 432-27.4L432-27.4Q436.4-27.4 438.83-24.73 441.25-22.05 441.25-16.95L441.25-16.95Q441.25-12.35 439.8-8.3 438.35-4.25 435.4-1.7 432.45 0.85 428.15 0.85L428.15 0.85ZM428.65-4.7Q430.45-4.7 431.6-6.9 432.75-9.1 433.28-12.2 433.8-15.3 433.8-18.05L433.8-18.05Q433.8-20.05 433.23-20.93 432.65-21.8 431.5-21.8L431.5-21.8Q429.7-21.8 428.55-19.63 427.4-17.45 426.9-14.38 426.4-11.3 426.4-8.5L426.4-8.5Q426.4-6.5 426.95-5.6 427.5-4.7 428.65-4.7L428.65-4.7ZM457.25-27.4Q461.75-27.4 466.1-24.95L466.1-24.95 462.75-1.1Q461.85 5.2 458.9 8.15 455.95 11.1 450.65 11.1L450.65 11.1Q445.95 11.1 442.05 8.35L442.05 8.35 444.75 3.5Q447.65 5.3 450.4 5.3L450.4 5.3Q452.4 5.3 453.7 4.15 455 3 455.4-0.05L455.4-0.05 455.85-3.3Q454.65-1.7 453.3-0.83 451.95 0.05 450.05 0.05L450.05 0.05Q446.85 0.05 445.07-2.48 443.3-5 443.3-9.25L443.3-9.25Q443.3-14.05 444.72-18.15 446.15-22.25 449.27-24.83 452.4-27.4 457.25-27.4L457.25-27.4ZM456.6-22Q453.75-22 452.27-18.15 450.8-14.3 450.8-9.1L450.8-9.1Q450.8-7.2 451.27-6.38 451.75-5.55 452.75-5.55L452.75-5.55Q454.35-5.55 456.45-8.75L456.45-8.75 458.25-21.75Q457.4-22 456.6-22L456.6-22ZM481-27.4Q484.8-27.4 487-25.45 489.2-23.5 489.2-20.45L489.2-20.45Q489.2-15.3 485.2-12.88 481.2-10.45 474.75-9.65L474.75-9.65 474.75-8.95Q474.75-4.75 478-4.75L478-4.75Q479.35-4.75 480.6-5.3 481.85-5.85 483.55-7.05L483.55-7.05 486.15-2.7Q481.95 0.85 476.75 0.85L476.75 0.85Q472.4 0.85 469.9-1.73 467.4-4.3 467.4-9.25L467.4-9.25Q467.4-14.15 468.9-18.28 470.4-22.4 473.47-24.9 476.55-27.4 481-27.4L481-27.4ZM475.2-14.3Q478.7-14.65 480.35-16.25 482-17.85 482-20.2L482-20.2Q482-22.3 480.15-22.3L480.15-22.3Q478.25-22.3 477.02-20.03 475.8-17.75 475.2-14.3L475.2-14.3ZM500.69-21.25L498.79-7.6Q498.74-7.4 498.74-7L498.74-7Q498.74-5.15 500.29-5.15L500.29-5.15Q501.19-5.15 502.49-5.8L502.49-5.8 504.24-1.1Q502.84-0.1 501.22 0.38 499.59 0.85 497.94 0.85L497.94 0.85Q494.74 0.85 493.02-0.95 491.29-2.75 491.29-5.95L491.29-5.95Q491.29-7.1 491.39-7.7L491.39-7.7 493.29-21.25 490.44-21.25 491.19-26.55 494.34-26.55 495.84-32.5 502.39-33.2 501.44-26.55 506.24-26.55 504.64-21.25 500.69-21.25ZM522.84-27.4Q525.19-27.4 526.54-25.78 527.89-24.15 527.89-21.35L527.89-21.35Q527.89-20.5 527.74-19.5L527.74-19.5 524.99 0 517.59 0 520.14-18.3Q520.19-18.6 520.19-19.15L520.19-19.15Q520.19-20.7 519.19-20.7L519.19-20.7Q518.34-20.7 517.39-19.35 516.44-18 515.19-15.3L515.19-15.3 513.04 0 505.64 0 510.84-37.1 518.34-37.85 516.24-22.7Q519.04-27.4 522.84-27.4L522.84-27.4ZM543.44-27.4Q547.24-27.4 549.44-25.45 551.64-23.5 551.64-20.45L551.64-20.45Q551.64-15.3 547.64-12.88 543.64-10.45 537.19-9.65L537.19-9.65 537.19-8.95Q537.19-4.75 540.44-4.75L540.44-4.75Q541.79-4.75 543.04-5.3 544.29-5.85 545.99-7.05L545.99-7.05 548.59-2.7Q544.39 0.85 539.19 0.85L539.19 0.85Q534.84 0.85 532.34-1.73 529.84-4.3 529.84-9.25L529.84-9.25Q529.84-14.15 531.34-18.28 532.84-22.4 535.91-24.9 538.99-27.4 543.44-27.4L543.44-27.4ZM537.64-14.3Q541.14-14.65 542.79-16.25 544.44-17.85 544.44-20.2L544.44-20.2Q544.44-22.3 542.59-22.3L542.59-22.3Q540.69-22.3 539.46-20.03 538.24-17.75 537.64-14.3L537.64-14.3ZM568.34-27.3Q569.38-27.3 570.49-26.9L570.49-26.9 568.19-19.65Q567.09-19.95 566.38-19.95L566.38-19.95Q564.59-19.95 563.36-18 562.13-16.05 561.13-12.45L561.13-12.45 559.44 0 552.03 0 555.74-26.55 562.09-26.55 561.94-22.1Q563.13-24.6 564.69-25.95 566.24-27.3 568.34-27.3L568.34-27.3Z" opacity="1" transform="matrix(1,0,0,1,0,0)" fill="#ffffff" class="slogan-text-1" data-fill-palette-color="secondary" id="text-1"></path></svg></g></svg></g></svg></g></svg></g><g><svg viewBox="0 0 89.70564635166477 103.58467929613853" height="103.58467929613853" width="89.70564635166477"><g><svg xmlns="http://www.w3.org/2000/svg" xmlns:xlink="http://www.w3.org/1999/xlink" version="1.1" x="0" y="0" viewBox="7.825 3.328248048702614 82.34926940373872 95.09014213015907" enable-background="new 0 0 100 100" xml:space="preserve" height="103.58467929613853" width="89.70564635166477" class="icon-icon-0" data-fill-palette-color="accent" id="icon-0"><path fill="none" d="M51.15 57.239c0.021 0 0.043 0 0.064 0-0.11 0-0.222-0.001-0.333-0.003C50.973 57.239 51.063 57.239 51.15 57.239z"></path><path fill="none" d="M75.233 85.507c0.054 0.712 1.653 1.047 2.368 1.052 0.694 0.005 2.102-0.144 2.102-0.927 0-0.824 0-2.152 0-3.091-3.357-0.458-4.263-0.582-4.47-0.61C75.233 81.931 75.151 84.415 75.233 85.507z"></path><path fill="none" d="M7.825 39.676c0 0 0.021 0.056 0.069 0.159 0.064 0.076 0.186 0.154 0.425 0.171 3.387 0.239 13.202 0.86 17.64 1.923 4.874 1.167 12.143 3.096 14.951 4.568 0.518 0.271 0.748 0.019 0.748 0.019s-8.059-4.671-17.524-6.347C16.057 38.739 7.825 39.676 7.825 39.676z"></path><path fill="#ffffff" d="M88.111 86.743c0 0-2.98-3.464-8.408-4.202 0 0.938 0 2.267 0 3.091 0 0.783-1.407 0.932-2.102 0.927-0.715-0.005-2.314-0.34-2.368-1.052-0.082-1.092 0-3.576 0-3.576s-8.39-1.116-14.819-0.13c-6.429 0.987-11.979 3.354-11.979 3.354s-4.094 4.558-3.105 8.019c0.989 3.463 15.332 4.946 21.019 5.193 5.688 0.248 22.386-0.307 23.616-3.771C90.955 91.813 88.111 86.743 88.111 86.743zM80.384 88.413c-2.357 0.639-8.183 0.867-16.038 0.433-4.716-0.261-12.518-1.948-14.647-2.764-1.238-0.475 10.667 1.256 13.686 1.65C69.062 88.475 81.862 88.012 80.384 88.413z" data-fill-palette-color="accent"></path><path fill="#ffffff" d="M79.703 55.339c0-6.1-0.457-16.973-1.979-19.908-2.597-5.007-8.249-8.484-12.669-11.251-3.771-2.36-17.059-6.698-19.439-7.465-0.013 0.679-0.05 2.12-0.136 2.645-0.078 0.474-0.34 1.863-0.449 2.432 1.862 0.612 9.747 3.25 15.382 5.852 6.43 2.967 10.193 6.153 12.365 8.902 2.868 3.63 2.597 18.422 2.597 18.422l-0.143 26.964c0.207 0.028 1.112 0.152 4.47 0.61C79.703 77.416 79.703 60.492 79.703 55.339z" data-fill-palette-color="accent"></path><path fill="#ffffff" d="M45.33 16.622c-0.052-0.017-0.082-0.026-0.082-0.026v-1.153l-6.76-1.154c0 0 1.124-7.749-1.256-9.218-0.884-0.545-6.354-2.343-8.655-1.539-4.395 1.535-6.059 15.518-6.059 15.518s-1.174 0.457-1.177 0.895c-0.002 0.38 0.888 1.425 0.888 1.425l-0.391 2.481c0 0-4.287 0.824-8.737 5.605-4.452 4.781-5.276 10.221-5.276 10.221s8.232-0.938 16.309 0.493c9.465 1.676 17.524 6.347 17.524 6.347s1.609-5.262-0.337-11.498c-1.945-6.235-5.455-8.832-5.455-8.832l0.658-2.036c0 0 1.156-0.564 1.263-0.837C37.925 22.967 37.08 22 37.08 22l0.331-1.143 6.993 1.406 0.223-0.605c0 0 0.049 0.016 0.135 0.044l0.291-2.237L45.33 16.622zM32.657 14.721c0.316-1.887 0.357-7.171 1.679-8.299 0.255-0.217 1.466-0.188 1.235 0.063-0.874 0.946-1.122 3.414-1.215 5.269-0.107 2.158-1.788 7.606-2.689 9.768-0.132 0.316-0.79-0.618-0.784-1.243C30.9 18.415 32.382 16.355 32.657 14.721zM23.679 23.825c0.419-0.222 4.04 0.082 5.485 0.32 1.302 0.214 4.083 0.839 4.762 1.393 0.541 0.438-3.523-0.542-4.802-0.744C27.675 24.563 23.04 24.163 23.679 23.825zM40.732 36.025c0.814 3.067 0.413 9.38 0.413 9.38s-11.394-6.203-21.779-6.575c-2.068-0.073-10.332-0.247-10.332-0.247s4.561-4.348 11.155-8.305c6.594-3.956 15.412-3.626 15.412-3.626S39.928 32.997 40.732 36.025z" data-fill-palette-color="accent"></path><path fill="#ffffff" d="M75.233 81.931C75.234 81.931 75.109 81.914 75.233 81.931L75.233 81.931z" data-fill-palette-color="accent"></path><path fill="#ffffff" d="M40.91 46.497c-2.808-1.472-10.077-3.4-14.951-4.568-4.438-1.063-14.252-1.685-17.64-1.923-0.239-0.017-0.361-0.095-0.425-0.171 0.461 0.977 3.467 6.208 15.757 8.302 15.167 2.585 18.007-1.621 18.007-1.621S41.428 46.769 40.91 46.497z" data-fill-palette-color="accent"></path><path fill="#ffffff" d="M7.894 39.835c-0.048-0.103-0.069-0.159-0.069-0.159S7.827 39.754 7.894 39.835z" data-fill-palette-color="accent"></path></svg></g></svg></g></svg></g></svg></g></svg></g><defs></defs></svg><rect width="395.52" height="247.2" fill="none" stroke="none" visibility="hidden"></rect></g></svg></g></svg>